<?xml version="1.0" encoding="utf-8"?>
<!-- Generator: Adobe Illustrator 23.0.3, SVG Export Plug-In . SVG Version: 6.00 Build 0)  -->
<svg version="1.1" id="Layer_1" xmlns="http://www.w3.org/2000/svg" xmlns:xlink="http://www.w3.org/1999/xlink" x="0px" y="0px"
	 viewBox="0 0 33 33" style="enable-background:new 0 0 33 33;" xml:space="preserve">
<style type="text/css">
	.st0{fill:#05b169;}
	.st1{fill:#FFFFFF;}
</style>
<g>
	<circle class="st0" cx="16.5" cy="16.5" r="16.5"/>
</g>
<g>
	<g>
		<path class="st1" d="M16.6,12c-1.1,0-2,0.9-2,2s0.9,2,2,2s2-0.9,2-2S17.7,12,16.6,12z M16.6,15.5c-0.8,0-1.5-0.7-1.5-1.5
			s0.7-1.5,1.5-1.5s1.5,0.7,1.5,1.5S17.4,15.5,16.6,15.5z"/>
		<path class="st1" d="M20.5,10.1c-1.1-1.1-2.5-1.6-4-1.6c-1.5,0-2.9,0.6-4,1.6c-2,2-2.2,5.6-0.5,7.9l4.5,6.5L21,18
			C22.7,15.8,22.4,12.1,20.5,10.1z M20.5,17.7l-4,5.8l-4-5.8c-1.5-2-1.3-5.4,0.5-7.1c0.9-0.9,2.2-1.5,3.5-1.5s2.6,0.5,3.5,1.5
			C21.8,12.3,22,15.6,20.5,17.7z"/>
	</g>
</g>
</svg>
