<?xml version="1.0" encoding="utf-8"?>
<!-- Generator: Adobe Illustrator 23.0.3, SVG Export Plug-In . SVG Version: 6.00 Build 0)  -->
<svg version="1.1" id="Layer_1" xmlns="http://www.w3.org/2000/svg" xmlns:xlink="http://www.w3.org/1999/xlink" x="0px" y="0px"
	 viewBox="0 0 75 75" style="enable-background:new 0 0 75 75;" xml:space="preserve">
<style type="text/css">
	.st0{opacity:0.15;fill-rule:evenodd;clip-rule:evenodd;fill:#00A651;enable-background:new    ;}
	.st1{fill:#00A651;}
</style>
<g>
	<path id="Rounded_Rectangle_2_copy_3_1_" class="st0" d="M8.4,1.936C18.077,0.731,27.815,0.084,37.566,0
		c9.706,0.083,19.398,0.73,29.029,1.936C70.109,3,72.017,4.493,73.06,8.4c1.207,9.661,1.855,19.383,1.94,29.119
		c-0.085,9.72-0.733,19.428-1.94,29.073c-1.043,3.738-2.838,5.361-6.466,6.465c-9.63,1.208-19.323,1.857-29.028,1.943
		c-9.751-0.087-19.489-0.735-29.166-1.943c-3.9-1.104-5.392-2.557-6.461-6.465C0.733,56.892,0.086,47.131,0,37.357
		C0.084,27.675,0.731,18.007,1.939,8.4C3.008,4.381,4.384,3,8.4,1.936z"/>
</g>
<g>
	<path class="st1" d="M52.406,35.835c-0.047-0.422-0.539-0.739-0.964-0.739c-1.374,0-2.594-0.807-3.106-2.055
		c-0.522-1.279-0.185-2.769,0.839-3.709c0.323-0.295,0.362-0.789,0.091-1.131c-0.704-0.893-1.503-1.7-2.376-2.4
		c-0.342-0.274-0.844-0.236-1.14,0.092c-0.894,0.99-2.5,1.358-3.741,0.84c-1.291-0.543-2.106-1.852-2.026-3.257
		c0.026-0.442-0.296-0.825-0.736-0.876c-1.121-0.13-2.251-0.134-3.375-0.009c-0.434,0.048-0.757,0.423-0.743,0.858
		c0.049,1.391-0.775,2.677-2.054,3.2c-1.226,0.501-2.821,0.136-3.713-0.846c-0.295-0.323-0.788-0.363-1.132-0.095
		c-0.899,0.705-1.716,1.513-2.427,2.399c-0.277,0.344-0.236,0.844,0.089,1.14c1.044,0.946,1.381,2.449,0.839,3.743
		c-0.518,1.233-1.798,2.028-3.264,2.028c-0.476-0.015-0.814,0.304-0.867,0.737c-0.132,1.127-0.133,2.275-0.006,3.411
		c0.047,0.423,0.554,0.738,0.984,0.738c1.306-0.033,2.56,0.775,3.087,2.055c0.524,1.279,0.187,2.769-0.839,3.71
		c-0.321,0.295-0.362,0.788-0.091,1.13c0.697,0.888,1.497,1.695,2.373,2.401c0.344,0.277,0.844,0.238,1.142-0.09
		c0.898-0.993,2.503-1.36,3.739-0.841c1.295,0.542,2.109,1.85,2.03,3.255c-0.026,0.442,0.297,0.826,0.736,0.876
		c0.573,0.067,1.15,0.1,1.728,0.1c0.549,0,1.098-0.03,1.647-0.091c0.435-0.048,0.757-0.423,0.742-0.859
		c-0.05-1.39,0.776-2.676,2.053-3.199c1.234-0.504,2.822-0.135,3.715,0.845c0.296,0.323,0.787,0.362,1.132,0.095
		c0.897-0.704,1.713-1.511,2.427-2.399c0.277-0.344,0.238-0.844-0.089-1.14c-1.044-0.945-1.383-2.449-0.84-3.742
		c0.51-1.217,1.742-2.033,3.068-2.033l0.186,0.005c0.43,0.035,0.826-0.297,0.878-0.736C52.532,38.118,52.533,36.971,52.406,35.835z
		 M37.5,46.148c-4.776,0-8.648-3.872-8.648-8.648s3.872-8.648,8.648-8.648s8.648,3.872,8.648,8.648c0,1.621-0.447,3.137-1.223,4.434
		l-3.787-3.787c0.274-0.646,0.419-1.347,0.419-2.07c0-1.416-0.552-2.747-1.553-3.749c-1.001-1.001-2.332-1.553-3.748-1.553
		c-0.473,0-0.943,0.063-1.398,0.187c-0.199,0.054-0.362,0.219-0.415,0.418c-0.054,0.204,0.007,0.413,0.166,0.573
		c0,0,1.869,1.884,2.495,2.509c0.066,0.066,0.065,0.222,0.056,0.278l-0.006,0.041c-0.063,0.688-0.185,1.513-0.285,1.83
		c-0.013,0.013-0.026,0.025-0.04,0.038c-0.014,0.014-0.028,0.028-0.042,0.043c-0.321,0.103-1.159,0.226-1.858,0.289l0-0.004
		l-0.031,0.008c-0.006,0.001-0.016,0.001-0.03,0.001c-0.076,0-0.187-0.021-0.288-0.122c-0.651-0.651-2.447-2.434-2.447-2.434
		c-0.161-0.161-0.326-0.194-0.437-0.194c-0.257,0-0.487,0.186-0.559,0.452c-0.494,1.83,0.03,3.798,1.368,5.137
		c1.001,1.001,2.333,1.553,3.749,1.553c0.723,0,1.424-0.145,2.07-0.419l3.828,3.828C40.809,45.647,39.214,46.148,37.5,46.148z"/>
</g>
</svg>
