<?xml version="1.0" encoding="utf-8"?>
<!-- Generator: Adobe Illustrator 23.0.3, SVG Export Plug-In . SVG Version: 6.00 Build 0)  -->
<svg version="1.1" id="Layer_1" xmlns="http://www.w3.org/2000/svg" xmlns:xlink="http://www.w3.org/1999/xlink" x="0px" y="0px"
	 viewBox="0 0 33 33" style="enable-background:new 0 0 33 33;" xml:space="preserve">
<style type="text/css">
	.st0{fill:#05b169;}
	.st1{fill:#FFFFFF;}
</style>
<g>
	<g>
		<circle class="st0" cx="16.5" cy="16.5" r="16.5"/>
	</g>
	<g>
		<g>
			<path class="st1" d="M21.359,24.5c-0.666,0-1.47-0.167-2.354-0.5c-1.938-0.731-4.047-2.175-5.939-4.066
				c-1.892-1.892-3.336-4.001-4.067-5.94c-0.665-1.762-0.666-3.209-0.004-3.871c0.095-0.095,0.192-0.198,0.292-0.303
				c0.604-0.636,1.287-1.351,2.192-1.318c0.624,0.026,1.228,0.413,1.847,1.183c1.829,2.274,1.004,3.085,0.05,4.024l-0.168,0.167
				c-0.156,0.156-0.451,0.879,2.293,3.622c0.895,0.895,1.659,1.551,2.269,1.948c0.384,0.25,1.071,0.627,1.353,0.345l0.17-0.171
				c0.939-0.952,1.749-1.774,4.022,0.053c0.77,0.619,1.157,1.223,1.183,1.848c0.037,0.905-0.683,1.589-1.32,2.193
				c-0.105,0.1-0.207,0.197-0.302,0.292C22.548,24.335,22.022,24.5,21.359,24.5z M11.416,9.038c-0.643,0-1.224,0.611-1.738,1.152
				c-0.103,0.109-0.203,0.214-0.302,0.313c-0.493,0.493-0.443,1.788,0.127,3.301c0.705,1.868,2.106,3.91,3.945,5.749
				c1.838,1.838,3.879,3.239,5.748,3.943c1.513,0.572,2.808,0.62,3.301,0.128c0.098-0.098,0.204-0.199,0.313-0.301
				c0.553-0.525,1.18-1.12,1.152-1.781c-0.019-0.454-0.349-0.942-0.982-1.45c-1.894-1.523-2.423-0.985-3.302-0.095l-0.172,0.174
				c-0.42,0.42-1.102,0.327-2.027-0.274c-0.642-0.418-1.435-1.097-2.357-2.019c-2.277-2.276-3.005-3.67-2.293-4.384l0.172-0.17
				c0.893-0.878,1.432-1.408-0.092-3.303c-0.51-0.632-0.997-0.963-1.451-0.982C11.444,9.038,11.43,9.038,11.416,9.038z"/>
		</g>
	</g>
</g>
</svg>
