<?xml version="1.0" encoding="utf-8"?>
<!-- Generator: Adobe Illustrator 23.0.3, SVG Export Plug-In . SVG Version: 6.00 Build 0)  -->
<svg version="1.1" id="Layer_1" xmlns="http://www.w3.org/2000/svg" xmlns:xlink="http://www.w3.org/1999/xlink" x="0px" y="0px"
	 viewBox="0 0 75 75" style="enable-background:new 0 0 75 75;" xml:space="preserve">
<style type="text/css">
	.st0{opacity:0.15;fill-rule:evenodd;clip-rule:evenodd;fill:#AA00FF;}
	.st1{fill:#AA00FF;}
	.st2{opacity:0.15;fill-rule:evenodd;clip-rule:evenodd;fill:#05b169;}
	.st3{fill:#05b169;}
	.st4{opacity:0.15;fill-rule:evenodd;clip-rule:evenodd;fill:#2979FF;}
	.st5{fill:#2979FF;}
</style>
<path id="Rounded_Rectangle_2_1_" class="st0" d="M8.4,1.9C18.1,0.7,27.8,0.1,37.6,0c9.7,0.1,19.4,0.7,29,1.9
	C70.1,3,72,4.5,73.1,8.4c1.2,9.7,1.9,19.4,1.9,29.1c-0.1,9.7-0.7,19.4-1.9,29.1c-1,3.7-2.8,5.4-6.5,6.5c-9.6,1.2-19.3,1.9-29,1.9
	c-9.7-0.1-19.5-0.7-29.2-1.9C4.5,72,3,70.5,1.9,66.6C0.7,56.9,0.1,47.1,0,37.4c0.1-9.7,0.7-19.4,1.9-29C3,4.4,4.4,3,8.4,1.9z"/>
<g>
	<g>
		<path class="st1" d="M51.8,28.9l-3.6-3.2l-3.6-3.2l-3.6,3.2l-3.6,3.2h4c-1.3,8.3-9,14.7-17.6,13.3c-0.4-0.1-0.5,0.5-0.2,0.6
			c10.8,3.8,23.2-2.4,25-13.9L51.8,28.9z"/>
		<path class="st1" d="M43.8,39.6c-1.1,1-2.4,1.9-3.7,2.7v10.3h3.7V39.6z"/>
		<path class="st1" d="M34.5,52.5h3.7v-9.3c-1.2,0.5-2.4,0.9-3.7,1.2V52.5z"/>
		<path class="st1" d="M45.7,52.5h3.7V29.8h-0.1c-0.6,2.9-1.9,5.5-3.6,7.7V52.5z"/>
		<path class="st1" d="M27,44.6c-1.3-0.2-2.5-0.5-3.7-0.9v8.8H27V44.6z"/>
		<path class="st1" d="M28.9,52.5h3.7v-7.8c-0.8,0.1-1.7,0.2-2.6,0.2c-0.4,0-0.8,0-1.1,0V52.5z"/>
	</g>
</g>
</svg>
