<?xml version="1.0" encoding="utf-8"?>
<!-- Generator: Adobe Illustrator 23.0.3, SVG Export Plug-In . SVG Version: 6.00 Build 0)  -->
<svg version="1.1" id="Layer_1" xmlns="http://www.w3.org/2000/svg" xmlns:xlink="http://www.w3.org/1999/xlink" x="0px" y="0px"
	 viewBox="0 0 75 75" style="enable-background:new 0 0 75 75;" xml:space="preserve">
<style type="text/css">
	.st0{opacity:0.15;fill-rule:evenodd;clip-rule:evenodd;fill:#2979FF;}
	.st1{fill:#2979FF;}
</style>
<path id="Rounded_Rectangle_2_1_" class="st0" d="M8.4,1.9C18.1,0.7,27.8,0.1,37.6,0c9.7,0.1,19.4,0.7,29,1.9
	C70.1,3,72,4.5,73.1,8.4c1.2,9.7,1.9,19.4,1.9,29.1c-0.1,9.7-0.7,19.4-1.9,29.1c-1,3.7-2.8,5.4-6.5,6.5c-9.6,1.2-19.3,1.9-29,1.9
	c-9.7-0.1-19.5-0.7-29.2-1.9C4.5,72,3,70.5,1.9,66.6C0.7,56.9,0.1,47.1,0,37.4c0.1-9.7,0.7-19.4,1.9-29C3,4.4,4.4,3,8.4,1.9z"/>
<g>
	<g>
		<path class="st1" d="M52.2,31.9l-6.2,5.9l-1.3-1.3l4.7-4.5c0.5-0.4,0.5-1.2,0-1.6L45.3,26c-0.2-0.2-0.5-0.3-0.8-0.3
			c-0.3,0-0.6,0.1-0.8,0.3L40,29.6l3.2,3.3c0.3,0.3,0.2,0.7,0,1C43,34,42.7,34.1,42.5,34l-4.6-4.9l6.1-5.8c0.4-0.4,1-0.3,1.3,0
			l7,7.3C52.6,30.9,52.6,31.5,52.2,31.9z M31.3,49.5c-0.2,0.2-0.5,0.3-0.8,0.3c-0.3,0-0.6-0.1-0.8-0.3l-4.2-4.3
			c-0.4-0.5-0.4-1.2,0-1.6l1.9,2c0.3,0.3,0.7,0.3,1,0c0.3-0.3,0.3-0.7,0-1l-1.9-2l0.5-0.5l1.9,2c0.3,0.3,0.7,0.3,1,0
			c0.3-0.3,0.3-0.7,0-1l-1.9-2l0.5-0.5l1.9,2c0.3,0.3,0.7,0.3,1,0c0.3-0.3,0.3-0.7,0-1l-1.9-2l0.5-0.5l1.9,2c0.3,0.3,0.7,0.3,1,0
			c0.1-0.1,0.2-0.2,0.2-0.3l-3.5-3.8l-6.8,6.5c-0.4,0.4-0.4,0.9,0,1.3l7,7.3c0.4,0.4,0.9,0.4,1.3,0l6.7-6.4l-1.3-1.3L31.3,49.5z
			 M43.5,31.6c-0.9-0.9-0.9-2.4,0.1-3.3c0.9-0.9,2.4-0.9,3.3,0.1c0.9,0.9,0.9,2.4-0.1,3.3C45.9,32.6,44.4,32.5,43.5,31.6z
			 M44.5,30.7c0.4,0.4,0.9,0.4,1.3,0c0.4-0.4,0.4-0.9,0-1.3c-0.4-0.4-0.9-0.4-1.3,0C44.2,29.7,44.2,30.3,44.5,30.7z M48.2,42.5
			l-6,5.7L28.8,33.9l6-5.7L48.2,42.5z M35.8,32.2c0-0.1,0-0.3-0.1-0.4L35,31.1c-0.2-0.2-0.5-0.2-0.7,0l-0.4,0.3
			c-0.2,0.2-0.2,0.5,0,0.7l0.7,0.7c0.1,0.1,0.2,0.2,0.4,0.2c0.1,0,0.7-0.5,0.7-0.5C35.8,32.5,35.8,32.3,35.8,32.2z M45.1,42.6
			c0.2-0.2,0.2-0.5,0-0.7l-7.5-8c-0.1-0.1-0.2-0.2-0.4-0.2c-0.1,0-0.3,0-0.4,0.1l-0.4,0.3c-0.2,0.2-0.2,0.5,0,0.7l7.5,8
			c0.1,0.1,0.2,0.2,0.4,0.2c0.1,0,0.3,0,0.4-0.1L45.1,42.6z M28.2,33.2l6-5.7l-1.6-1.7l-6,5.7L28.2,33.2z M23.9,28.7
			c-0.3-0.3-0.5-0.8-0.5-1.3c0-0.5,0.2-0.9,0.6-1.3l3.4-3.2c0.7-0.7,1.9-0.6,2.5,0.1l2.1,2.2L26,31L23.9,28.7z M25,27.5l1.1,1.2
			l3.7-3.4l-1.1-1.2L25,27.5z M51.3,50.6c0.1,0.3,0,0.7-0.2,0.9c-0.2,0.2-0.6,0.3-0.9,0.2L43,49l6-5.7L51.3,50.6z M49.4,48.1
			l-0.9-2.9L45,48.6l2.8,1.1L49.4,48.1z"/>
	</g>
</g>
</svg>
