<?xml version="1.0" encoding="utf-8"?>
<!-- Generator: Adobe Illustrator 23.0.3, SVG Export Plug-In . SVG Version: 6.00 Build 0)  -->
<svg version="1.1" id="Layer_1" xmlns="http://www.w3.org/2000/svg" xmlns:xlink="http://www.w3.org/1999/xlink" x="0px" y="0px"
	 viewBox="0 0 90 90" style="enable-background:new 0 0 90 90;" xml:space="preserve">
<style type="text/css">
	.st0{fill:#FDE8DE;}
	.st1{fill:#05b169;}
	.st2{fill:#FFFFFF;}
</style>
<g>
	<circle class="st1" cx="45" cy="45" r="45"/>
</g>
<g>
	<g>
		<g>
			<g>
				<path class="st2" d="M34.34,51.642c0-0.368-0.299-0.667-0.667-0.667s-0.667,0.299-0.667,0.667c-0.368,0-0.667,0.299-0.667,0.667
					c0,0.368,0.299,0.667,0.667,0.667c0,0.368,0.299,0.667,0.667,0.667s0.667-0.299,0.667-0.667c0.368,0,0.667-0.299,0.667-0.667
					C35.006,51.94,34.708,51.642,34.34,51.642z"/>
				<path class="st2" d="M28.34,48.984h-0.664l0-0.646c0-0.334-0.236-0.633-0.567-0.68c-0.41-0.059-0.761,0.26-0.761,0.66v0.667
					h-0.666c-0.283,0-0.542,0.177-0.628,0.447c-0.146,0.459,0.192,0.881,0.629,0.881h0.664v0.666c0,0.283,0.177,0.542,0.447,0.628
					c0.459,0.146,0.881-0.192,0.881-0.629v-0.664h0.666c0.283,0,0.542-0.177,0.628-0.447C29.116,49.407,28.777,48.984,28.34,48.984z
					"/>
				<path class="st2" d="M57.714,39.61c0.054,0,0.108-0.006,0.162-0.02c2.893-0.723,4.487-2.603,4.487-5.293v-5.948
					c0-0.382-0.31-0.692-0.692-0.692h-2.85c-0.065,0-0.127,0.026-0.172,0.072c-0.559,0.572-0.161,1.256,0.394,1.256h1.761
					c0.127,0,0.231,0.104,0.231,0.231v5.082c0,2.079-1.171,3.427-3.482,4.004c-0.355,0.089-0.572,0.45-0.483,0.806
					C57.146,39.409,57.417,39.61,57.714,39.61z"/>
				<path class="st2" d="M48.286,61.016h-6.574c-0.355,0-0.666,0.268-0.688,0.622c-0.024,0.386,0.282,0.706,0.663,0.706h6.574
					c0.355,0,0.666-0.268,0.688-0.622C48.972,61.336,48.666,61.016,48.286,61.016z"/>
				<path class="st2" d="M32.968,39.107c0.089-0.356-0.127-0.717-0.483-0.806c-2.31-0.578-3.482-1.925-3.482-4.004v-5.082
					c0-0.127,0.104-0.231,0.231-0.231h1.984c0.065,0,0.127-0.026,0.172-0.072c0.559-0.572,0.161-1.256-0.394-1.256h-2.628
					c-0.382,0-0.692,0.31-0.692,0.692v5.948c0,2.69,1.594,4.57,4.487,5.293c0.054,0.014,0.108,0.02,0.162,0.02
					C32.622,39.61,32.893,39.409,32.968,39.107z"/>
				<path class="st2" d="M52.955,58.862c-0.074-0.295-0.339-0.503-0.644-0.503H37.619c-0.305,0-0.57,0.207-0.644,0.503l-1.328,5.312
					c-0.05,0.199-0.005,0.409,0.121,0.57C35.893,64.906,36.086,65,36.29,65h17.348c0.205,0,0.398-0.094,0.523-0.256
					c0.126-0.161,0.171-0.371,0.121-0.57L52.955,58.862z M37.141,63.672l0.996-3.984h13.655l0.996,3.984H37.141z"/>
				<path class="st2" d="M60.371,55.625h-0.664v-0.639c0-0.355-0.268-0.666-0.622-0.688c-0.386-0.024-0.706,0.282-0.706,0.663v0.664
					H57.74c-0.355,0-0.666,0.268-0.688,0.622c-0.024,0.386,0.282,0.706,0.663,0.706h0.664v0.666c0,0.283,0.177,0.542,0.447,0.628
					c0.459,0.147,0.882-0.192,0.882-0.629v-0.664h0.666c0.283,0,0.541-0.177,0.628-0.446C61.147,56.048,60.808,55.625,60.371,55.625
					z"/>
				<path class="st2" d="M64.291,42.344h-1.303v-1.303c0-0.355-0.268-0.666-0.622-0.688c-0.386-0.024-0.706,0.282-0.706,0.663v1.328
					h-1.303c-0.355,0-0.666,0.268-0.688,0.622c-0.024,0.386,0.282,0.706,0.663,0.706h1.328v1.303c0,0.355,0.268,0.666,0.622,0.688
					c0.386,0.024,0.706-0.282,0.706-0.663v-1.328h1.328c0.381,0,0.687-0.321,0.663-0.706C64.957,42.611,64.646,42.344,64.291,42.344
					z"/>
				<path class="st2" d="M56.973,25.664c0-0.367-0.298-0.664-0.664-0.664H33.655c-0.368,0-0.667,0.298-0.667,0.667v2.654
					c0,8.034,1.341,10.808,1.382,10.887c0.756,1.764,1.867,2.981,2.94,4.159c1.876,2.056,3.647,3.998,3.647,8.862
					c0,0.018-0.014,1.812-1.217,3.616c-0.203,0.305-0.121,0.718,0.184,0.921c0.305,0.203,0.717,0.121,0.921-0.184
					c1.424-2.135,1.44-4.263,1.44-4.353c0-5.378-2.031-7.604-3.994-9.757c-1.045-1.146-2.033-2.228-2.715-3.818
					c-0.013-0.026-1.26-2.694-1.26-10.333v-1.992h21.328v1.992c0,7.638-1.247,10.307-1.274,10.364
					c-0.668,1.559-1.656,2.641-2.701,3.787c-1.963,2.152-3.994,4.378-3.994,9.757c0,0.09,0.016,2.218,1.44,4.353
					c0.128,0.192,0.339,0.295,0.553,0.295c0.126,0,0.254-0.036,0.368-0.112c0.305-0.203,0.387-0.616,0.184-0.921
					c-1.191-1.787-1.217-3.6-1.217-3.616c0-4.864,1.771-6.806,3.647-8.862c1.073-1.177,2.183-2.394,2.924-4.123
					c0.056-0.114,1.398-2.889,1.398-10.922L56.973,25.664L56.973,25.664z"/>
				<path class="st2" d="M41.906,38.775c0.124,0.112,0.283,0.17,0.444,0.17c0.106,0,0.211-0.025,0.308-0.076l2.396-1.256l2.29,1.25
					c0.241,0.132,0.539,0.101,0.748-0.076c0.209-0.178,0.288-0.467,0.196-0.726l-0.803-2.28l1.934-1.641
					c0.213-0.181,0.29-0.474,0.194-0.736c-0.096-0.261-0.345-0.435-0.624-0.435h-2.353l-1.027-2.266
					c-0.108-0.238-0.344-0.39-0.605-0.39h-0.001c-0.262,0.001-0.498,0.154-0.605,0.392l-1.013,2.264h-2.365
					c-0.282,0-0.533,0.179-0.627,0.444c-0.093,0.266-0.008,0.562,0.213,0.738l2.023,1.617l-0.899,2.268
					C41.631,38.295,41.7,38.589,41.906,38.775z M43.848,34.308c0.227,0,0.465-0.154,0.573-0.394l0.589-1.316l0.598,1.319
					c0.107,0.239,0.345,0.391,0.607,0.38h0.975l-0.907,0.781c-0.211,0.179-0.29,0.469-0.198,0.73l0.381,1.082l-1.086-0.593
					c-0.1-0.054-0.21-0.081-0.32-0.081c-0.106,0-0.213,0.025-0.309,0.076l-1.131,0.593l0.423-1.066
					c0.108-0.273,0.025-0.583-0.204-0.766l-0.93-0.677h0.939V34.308z"/>
			</g>
		</g>
	</g>
</g>
</svg>
