<?xml version="1.0" encoding="utf-8"?>
<!-- Generator: Adobe Illustrator 23.0.3, SVG Export Plug-In . SVG Version: 6.00 Build 0)  -->
<svg version="1.1" id="Layer_1" xmlns="http://www.w3.org/2000/svg" xmlns:xlink="http://www.w3.org/1999/xlink" x="0px" y="0px"
	 viewBox="0 0 90 90" style="enable-background:new 0 0 90 90;" xml:space="preserve">
<style type="text/css">
	.st0{fill:#FDE8DE;}
	.st1{fill:#05b169;}
	.st2{fill:#FFFFFF;}
</style>
<g>
	<circle class="st1" cx="45" cy="45" r="45"/>
</g>
<g>
	<path class="st2" d="M67.207,37.72c0.005-0.03,0.008-0.06,0.01-0.091c0.001-0.036,0.001-0.071-0.002-0.107
		c-0.003-0.031-0.007-0.061-0.015-0.091c-0.008-0.036-0.019-0.07-0.033-0.104c-0.007-0.018-0.008-0.036-0.016-0.053
		c-0.006-0.013-0.016-0.022-0.023-0.035c-0.007-0.013-0.01-0.026-0.017-0.039l-7.407-11.852c-0.034-0.054-0.074-0.103-0.119-0.146
		c-0.001-0.001-0.001-0.001-0.002-0.001c-0.064-0.06-0.139-0.103-0.22-0.137c-0.01-0.004-0.017-0.013-0.028-0.018
		c-0.008-0.003-0.017-0.001-0.025-0.004C59.233,25.017,59.156,25,59.076,25H30.927c-0.08,0-0.156,0.017-0.23,0.041
		c-0.008,0.002-0.016,0.001-0.024,0.004c-0.011,0.004-0.018,0.013-0.028,0.017c-0.077,0.032-0.15,0.073-0.213,0.13
		c-0.004,0.004-0.009,0.006-0.013,0.009c-0.046,0.043-0.087,0.093-0.121,0.147l-7.407,11.852c-0.007,0.012-0.01,0.026-0.017,0.039
		s-0.017,0.022-0.023,0.035c-0.008,0.017-0.01,0.036-0.017,0.053c-0.013,0.034-0.024,0.068-0.033,0.104
		c-0.007,0.03-0.012,0.061-0.015,0.092c-0.005,0.036-0.006,0.072-0.004,0.107c0.001,0.031,0.004,0.061,0.01,0.091
		c0.006,0.036,0.016,0.07,0.027,0.105c0.01,0.029,0.02,0.057,0.033,0.085c0.007,0.013,0.009,0.028,0.016,0.041
		c0.012,0.021,0.03,0.038,0.043,0.058c0.01,0.016,0.016,0.033,0.029,0.047l21.473,26.656c0.001,0.002,0.003,0.004,0.004,0.005
		l0.004,0.005c0.002,0.003,0.006,0.004,0.008,0.007c0.061,0.073,0.136,0.129,0.219,0.173c0.022,0.012,0.043,0.022,0.066,0.032
		C44.806,64.973,44.901,65,45,65c0.084,0,0.17-0.015,0.254-0.045c0.013-0.004,0.021-0.015,0.033-0.02
		c0.038-0.016,0.067-0.041,0.101-0.062c0.056-0.036,0.109-0.073,0.153-0.121c0.01-0.011,0.026-0.016,0.036-0.028l21.481-26.667
		c0.012-0.015,0.018-0.033,0.029-0.047c0.014-0.02,0.031-0.036,0.043-0.058c0.007-0.013,0.01-0.028,0.016-0.041
		c0.013-0.028,0.024-0.056,0.033-0.085C67.19,37.79,67.201,37.756,67.207,37.72z M46.557,26.481h11.451l-3.6,9.663L46.557,26.481z
		 M53.073,36.852H36.927L45,26.916L53.073,36.852z M35.54,36.209l-3.555-9.727h11.459L35.54,36.209z M53.593,38.333L44.87,61.745
		l-8.555-23.412H53.593z M59.243,27.409l5.901,9.443h-9.419L59.243,27.409z M30.75,27.419l3.447,9.433h-9.341L30.75,27.419z
		 M34.738,38.333l8.029,21.973L25.067,38.333H34.738z M46.776,60.874l8.398-22.541h9.76L46.776,60.874z"/>
</g>
</svg>
