<?xml version="1.0" encoding="utf-8"?>
<!-- Generator: Adobe Illustrator 23.0.3, SVG Export Plug-In . SVG Version: 6.00 Build 0)  -->
<svg version="1.1" id="Layer_1" xmlns="http://www.w3.org/2000/svg" xmlns:xlink="http://www.w3.org/1999/xlink" x="0px" y="0px"
	 viewBox="0 0 90 90" style="enable-background:new 0 0 90 90;" xml:space="preserve">
<style type="text/css">
	.st0{fill:#FDE8DE;}
	.st1{fill:#05b169;}
</style>
<g>
	<circle class="st0" cx="45" cy="45" r="45"/>
</g>
<g>
	<g id="surface1_1_">
		<path class="st1" d="M55.456,39.924c0-5.765-4.691-10.456-10.456-10.456c-5.766,0-10.456,4.691-10.456,10.456
			c0,5.766,4.691,10.456,10.456,10.456C50.765,50.38,55.456,45.69,55.456,39.924z M45,49.208c-5.119,0-9.284-4.165-9.284-9.284
			c0-5.119,4.165-9.284,9.284-9.284s9.284,4.165,9.284,9.284C54.284,45.043,50.119,49.208,45,49.208z"/>
		<path class="st1" d="M52.282,37.632c-0.11-0.341-0.425-0.569-0.783-0.647h-4.366l-1.349-4.075
			c-0.111-0.34-0.425-0.569-0.783-0.569s-0.672,0.229-0.783,0.569l-1.349,4.153h-4.366c-0.358,0-0.673,0.228-0.783,0.569
			c-0.11,0.34,0.01,0.71,0.299,0.92l3.532,2.567l-1.349,4.153c-0.11,0.34,0.009,0.71,0.299,0.921c0.289,0.21,0.678,0.21,0.968,0
			L45,43.625l3.532,2.567c0.145,0.105,0.314,0.158,0.484,0.158s0.339-0.052,0.484-0.158c0.29-0.21,0.41-0.58,0.299-0.921
			l-1.349-4.153l3.532-2.567C52.272,38.342,52.392,37.972,52.282,37.632z M47.557,40.322c-0.289,0.21-0.41,0.58-0.299,0.921
			l1.096,3.373l-2.869-2.085c-0.145-0.105-0.314-0.158-0.484-0.158s-0.339,0.052-0.484,0.158l-2.869,2.085l1.096-3.373
			c0.11-0.34-0.01-0.71-0.299-0.92l-2.87-2.085h3.547c0.358,0,0.672-0.229,0.783-0.569L45,34.295l1.096,3.373
			c0.111,0.34,0.425,0.569,0.783,0.569h3.547L47.557,40.322z"/>
		<path class="st1" d="M60.57,59.306l-5.494-9.645l0.963-0.309c1.16-0.372,1.925-1.481,1.862-2.697l-0.073-1.397
			c-0.022-0.423,0.135-0.838,0.432-1.14l0.981-0.997c0.854-0.868,1.016-2.206,0.395-3.253l-0.714-1.203
			c-0.216-0.364-0.269-0.805-0.147-1.211l0.405-1.339c0.353-1.165-0.125-2.425-1.162-3.064l-1.191-0.734
			c-0.36-0.222-0.613-0.587-0.693-1.003l-0.263-1.374c-0.229-1.196-1.238-2.09-2.453-2.173l-1.396-0.096
			c-0.422-0.029-0.816-0.236-1.079-0.567l-0.872-1.094c-0.759-0.952-2.067-1.274-3.181-0.784l-1.28,0.564c0,0,0,0,0,0
			c-0.387,0.171-0.832,0.171-1.219,0l-1.28-0.564c-1.115-0.49-2.423-0.168-3.182,0.784l-0.872,1.094
			c-0.264,0.331-0.657,0.538-1.079,0.567l-1.396,0.096c-1.215,0.084-2.224,0.977-2.453,2.173l-0.263,1.374
			c-0.08,0.416-0.332,0.782-0.693,1.003l-1.191,0.733c-1.037,0.638-1.515,1.899-1.162,3.064l0.405,1.339
			c0.123,0.405,0.069,0.846-0.147,1.21l-0.714,1.203c-0.621,1.047-0.459,2.385,0.395,3.253l0.981,0.997
			c0.297,0.302,0.454,0.717,0.432,1.14L32.1,46.655c-0.063,1.216,0.702,2.325,1.861,2.697l0.963,0.309l-5.494,9.646
			c-0.166,0.291-0.16,0.65,0.016,0.935c0.176,0.286,0.495,0.453,0.829,0.435l4.592-0.238l2.138,4.071
			c0.156,0.297,0.461,0.485,0.797,0.49c0.005,0,0.01,0,0.016,0c0.329,0,0.634-0.176,0.797-0.463l5.591-9.816
			c0.259,0.08,0.527,0.122,0.796,0.122s0.536-0.042,0.796-0.122l5.591,9.816C51.55,64.824,51.854,65,52.184,65
			c0.005,0,0.011,0,0.016,0c0.335-0.005,0.641-0.193,0.797-0.49l2.137-4.071l4.592,0.238c0.336,0.018,0.652-0.149,0.828-0.435
			C60.73,59.955,60.736,59.597,60.57,59.306z M37.825,63.555l-1.947-3.708l1.15-2.018c0.16-0.281,0.062-0.639-0.219-0.799
			c-0.281-0.16-0.639-0.062-0.799,0.219l-1.15,2.018l-4.182,0.217l5.28-9.27c0.099,0.111,0.184,0.237,0.247,0.375l0.585,1.271
			c0.303,0.659,0.85,1.148,1.496,1.391l-0.916,1.608c-0.16,0.281-0.062,0.639,0.219,0.799c0.092,0.052,0.191,0.077,0.29,0.077
			c0.204,0,0.402-0.106,0.51-0.296l1.159-2.035c0.048-0.006,0.095-0.012,0.143-0.021l1.378-0.241
			c0.417-0.073,0.848,0.034,1.183,0.292l0.929,0.716L37.825,63.555z M45.762,53.467c-0.002,0.001-0.004,0.002-0.006,0.003
			c-0.003,0.002-0.006,0.004-0.009,0.006c-0.462,0.263-1.031,0.263-1.494,0c-0.003-0.002-0.006-0.004-0.009-0.006
			c-0.002-0.001-0.004-0.002-0.005-0.003c-0.056-0.032-0.11-0.067-0.162-0.107l-1.108-0.854c-0.472-0.364-1.052-0.558-1.641-0.558
			c-0.153,0-0.307,0.013-0.46,0.04l-1.378,0.241c-0.089,0.016-0.178,0.023-0.266,0.022c-0.007,0-0.014-0.001-0.021-0.001
			c-0.572-0.01-1.102-0.345-1.348-0.88L37.27,50.1c-0.25-0.544-0.676-0.985-1.2-1.259c-0.001-0.001-0.002-0.002-0.003-0.002
			c-0.003-0.002-0.007-0.003-0.01-0.005c-0.013-0.006-0.025-0.013-0.038-0.019c-0.003-0.002-0.005-0.003-0.009-0.004
			c-0.116-0.057-0.236-0.106-0.36-0.146l-1.332-0.427c-0.653-0.21-1.085-0.835-1.049-1.52l0.073-1.397
			c0.039-0.75-0.24-1.487-0.767-2.023l-0.981-0.997c-0.481-0.489-0.573-1.243-0.223-1.833l0.714-1.203
			c0.383-0.646,0.479-1.429,0.261-2.148l-0.405-1.339c-0.199-0.657,0.07-1.367,0.655-1.726l1.191-0.734
			c0.64-0.394,1.088-1.043,1.229-1.781l0.263-1.374c0.129-0.674,0.698-1.177,1.382-1.225l1.396-0.096
			c0.749-0.052,1.447-0.418,1.916-1.006l0.872-1.094c0.428-0.537,1.165-0.718,1.793-0.442l1.28,0.563
			c0.688,0.303,1.476,0.303,2.164,0l1.28-0.563c0.628-0.276,1.365-0.095,1.793,0.442l0.872,1.094
			c0.468,0.587,1.166,0.954,1.916,1.005l1.396,0.096c0.685,0.047,1.253,0.551,1.382,1.224l0.263,1.374
			c0.142,0.738,0.59,1.387,1.229,1.78l1.191,0.734c0.584,0.36,0.854,1.07,0.655,1.726l-0.405,1.339
			c-0.218,0.719-0.122,1.501,0.261,2.148l0.714,1.203c0.35,0.59,0.259,1.344-0.223,1.833l-0.981,0.997
			c-0.527,0.535-0.806,1.273-0.767,2.023l0.073,1.397c0.036,0.685-0.396,1.31-1.049,1.52l-1.332,0.427
			c-0.124,0.04-0.244,0.089-0.36,0.146c-0.003,0.002-0.006,0.003-0.009,0.004c-0.013,0.006-0.025,0.013-0.038,0.019
			c-0.003,0.002-0.006,0.003-0.009,0.005c-0.001,0.001-0.002,0.001-0.003,0.002c-0.524,0.273-0.95,0.715-1.2,1.259l-0.585,1.271
			c-0.246,0.534-0.775,0.869-1.347,0.88c-0.008,0-0.017,0-0.025,0.001c-0.087,0-0.175-0.007-0.263-0.023l-1.378-0.241
			c-0.74-0.129-1.506,0.06-2.101,0.518l-1.108,0.854C45.871,53.4,45.817,53.434,45.762,53.467z M55.14,59.267l-1.159-2.035
			c-0.16-0.281-0.518-0.379-0.799-0.219c-0.281,0.16-0.379,0.518-0.219,0.799l1.159,2.034l-1.947,3.708l-5.357-9.405l0.929-0.716
			c0.335-0.258,0.767-0.365,1.184-0.292l1.378,0.241c0.048,0.009,0.096,0.015,0.143,0.021l1.159,2.035
			c0.108,0.19,0.306,0.296,0.51,0.296c0.098,0,0.198-0.025,0.29-0.077c0.281-0.16,0.379-0.518,0.219-0.799l-0.915-1.607
			c0.646-0.243,1.193-0.732,1.496-1.391l0.585-1.271c0.063-0.138,0.148-0.264,0.247-0.375l5.28,9.27L55.14,59.267z"/>
	</g>
</g>
</svg>
