<?xml version="1.0" encoding="utf-8"?>
<!-- Generator: Adobe Illustrator 23.0.3, SVG Export Plug-In . SVG Version: 6.00 Build 0)  -->
<svg version="1.1" id="Layer_1" xmlns="http://www.w3.org/2000/svg" xmlns:xlink="http://www.w3.org/1999/xlink" x="0px" y="0px"
	 viewBox="0 0 90 90" style="enable-background:new 0 0 90 90;" xml:space="preserve">
<style type="text/css">
	.st0{fill:#FDE8DE;}
	.st1{fill:#05b169;}
</style>
<g>
	<circle class="st0" cx="45" cy="45" r="45"/>
</g>
<g>
	<path class="st1" d="M67.2,37.7C67.2,37.7,67.2,37.7,67.2,37.7c0-0.1,0-0.2,0-0.2c0,0,0-0.1,0-0.1c0,0,0-0.1,0-0.1c0,0,0,0,0-0.1
		c0,0,0,0,0,0c0,0,0,0,0,0l-7.4-11.9c0-0.1-0.1-0.1-0.1-0.1c0,0,0,0,0,0c-0.1-0.1-0.1-0.1-0.2-0.1c0,0,0,0,0,0c0,0,0,0,0,0
		c-0.1,0-0.2,0-0.2,0H30.9c-0.1,0-0.2,0-0.2,0c0,0,0,0,0,0c0,0,0,0,0,0c-0.1,0-0.1,0.1-0.2,0.1c0,0,0,0,0,0c0,0-0.1,0.1-0.1,0.1
		l-7.4,11.9c0,0,0,0,0,0s0,0,0,0c0,0,0,0,0,0.1c0,0,0,0.1,0,0.1c0,0,0,0.1,0,0.1c0,0,0,0.1,0,0.1c0,0,0,0.1,0,0.1c0,0,0,0.1,0,0.1
		c0,0,0,0.1,0,0.1c0,0,0,0,0,0c0,0,0,0,0,0.1c0,0,0,0,0,0l21.5,26.7c0,0,0,0,0,0l0,0c0,0,0,0,0,0c0.1,0.1,0.1,0.1,0.2,0.2
		c0,0,0,0,0.1,0c0.1,0,0.2,0.1,0.3,0.1c0.1,0,0.2,0,0.3,0c0,0,0,0,0,0c0,0,0.1,0,0.1-0.1c0.1,0,0.1-0.1,0.2-0.1c0,0,0,0,0,0
		l21.5-26.7c0,0,0,0,0,0c0,0,0,0,0-0.1c0,0,0,0,0,0c0,0,0-0.1,0-0.1C67.2,37.8,67.2,37.8,67.2,37.7z M46.6,26.5H58l-3.6,9.7
		L46.6,26.5z M53.1,36.9H36.9l8.1-9.9L53.1,36.9z M35.5,36.2L32,26.5h11.5L35.5,36.2z M53.6,38.3l-8.7,23.4l-8.6-23.4H53.6z
		 M59.2,27.4l5.9,9.4h-9.4L59.2,27.4z M30.8,27.4l3.4,9.4h-9.3L30.8,27.4z M34.7,38.3l8,22l-17.7-22H34.7z M46.8,60.9l8.4-22.5h9.8
		L46.8,60.9z"/>
</g>
</svg>
