<?xml version="1.0" encoding="utf-8"?>
<!-- Generator: Adobe Illustrator 23.0.3, SVG Export Plug-In . SVG Version: 6.00 Build 0)  -->
<svg version="1.1" id="Layer_1" xmlns="http://www.w3.org/2000/svg" xmlns:xlink="http://www.w3.org/1999/xlink" x="0px" y="0px"
	 viewBox="0 0 90 90" style="enable-background:new 0 0 90 90;" xml:space="preserve">
<style type="text/css">
	.st0{fill:#FDE8DE;}
	.st1{fill:#05b169;}
</style>
<g>
	<circle class="st0" cx="45" cy="45" r="45"/>
</g>
<g>
	<g>
		<g>
			<g>
				<path class="st1" d="M34.3,51.6c0-0.4-0.3-0.7-0.7-0.7S33,51.3,33,51.6c-0.4,0-0.7,0.3-0.7,0.7c0,0.4,0.3,0.7,0.7,0.7
					c0,0.4,0.3,0.7,0.7,0.7s0.7-0.3,0.7-0.7c0.4,0,0.7-0.3,0.7-0.7C35,51.9,34.7,51.6,34.3,51.6z"/>
				<path class="st1" d="M28.3,49h-0.7l0-0.6c0-0.3-0.2-0.6-0.6-0.7c-0.4-0.1-0.8,0.3-0.8,0.7V49h-0.7c-0.3,0-0.5,0.2-0.6,0.4
					c-0.1,0.5,0.2,0.9,0.6,0.9h0.7V51c0,0.3,0.2,0.5,0.4,0.6c0.5,0.1,0.9-0.2,0.9-0.6v-0.7h0.7c0.3,0,0.5-0.2,0.6-0.4
					C29.1,49.4,28.8,49,28.3,49z"/>
				<path class="st1" d="M57.7,39.6c0.1,0,0.1,0,0.2,0c2.9-0.7,4.5-2.6,4.5-5.3v-5.9c0-0.4-0.3-0.7-0.7-0.7h-2.9
					c-0.1,0-0.1,0-0.2,0.1C58.1,28.3,58.5,29,59,29h1.8c0.1,0,0.2,0.1,0.2,0.2v5.1c0,2.1-1.2,3.4-3.5,4c-0.4,0.1-0.6,0.4-0.5,0.8
					C57.1,39.4,57.4,39.6,57.7,39.6z"/>
				<path class="st1" d="M48.3,61h-6.6c-0.4,0-0.7,0.3-0.7,0.6c0,0.4,0.3,0.7,0.7,0.7h6.6c0.4,0,0.7-0.3,0.7-0.6
					C49,61.3,48.7,61,48.3,61z"/>
				<path class="st1" d="M33,39.1c0.1-0.4-0.1-0.7-0.5-0.8c-2.3-0.6-3.5-1.9-3.5-4v-5.1c0-0.1,0.1-0.2,0.2-0.2h2
					c0.1,0,0.1,0,0.2-0.1c0.6-0.6,0.2-1.3-0.4-1.3h-2.6c-0.4,0-0.7,0.3-0.7,0.7v5.9c0,2.7,1.6,4.6,4.5,5.3c0.1,0,0.1,0,0.2,0
					C32.6,39.6,32.9,39.4,33,39.1z"/>
				<path class="st1" d="M53,58.9c-0.1-0.3-0.3-0.5-0.6-0.5H37.6c-0.3,0-0.6,0.2-0.6,0.5l-1.3,5.3c0,0.2,0,0.4,0.1,0.6
					c0.1,0.2,0.3,0.3,0.5,0.3h17.3c0.2,0,0.4-0.1,0.5-0.3c0.1-0.2,0.2-0.4,0.1-0.6L53,58.9z M37.1,63.7l1-4h13.7l1,4H37.1z"/>
				<path class="st1" d="M60.4,55.6h-0.7V55c0-0.4-0.3-0.7-0.6-0.7c-0.4,0-0.7,0.3-0.7,0.7v0.7h-0.6c-0.4,0-0.7,0.3-0.7,0.6
					c0,0.4,0.3,0.7,0.7,0.7h0.7v0.7c0,0.3,0.2,0.5,0.4,0.6c0.5,0.1,0.9-0.2,0.9-0.6V57h0.7c0.3,0,0.5-0.2,0.6-0.4
					C61.1,56,60.8,55.6,60.4,55.6z"/>
				<path class="st1" d="M64.3,42.3H63V41c0-0.4-0.3-0.7-0.6-0.7c-0.4,0-0.7,0.3-0.7,0.7v1.3h-1.3c-0.4,0-0.7,0.3-0.7,0.6
					c0,0.4,0.3,0.7,0.7,0.7h1.3V45c0,0.4,0.3,0.7,0.6,0.7c0.4,0,0.7-0.3,0.7-0.7v-1.3h1.3c0.4,0,0.7-0.3,0.7-0.7
					C65,42.6,64.6,42.3,64.3,42.3z"/>
				<path class="st1" d="M57,25.7c0-0.4-0.3-0.7-0.7-0.7H33.7c-0.4,0-0.7,0.3-0.7,0.7v2.7c0,8,1.3,10.8,1.4,10.9
					c0.8,1.8,1.9,3,2.9,4.2c1.9,2.1,3.6,4,3.6,8.9c0,0,0,1.8-1.2,3.6c-0.2,0.3-0.1,0.7,0.2,0.9c0.3,0.2,0.7,0.1,0.9-0.2
					c1.4-2.1,1.4-4.3,1.4-4.4c0-5.4-2-7.6-4-9.8c-1-1.1-2-2.2-2.7-3.8c0,0-1.3-2.7-1.3-10.3v-2h21.3v2c0,7.6-1.2,10.3-1.3,10.4
					c-0.7,1.6-1.7,2.6-2.7,3.8c-2,2.2-4,4.4-4,9.8c0,0.1,0,2.2,1.4,4.4c0.1,0.2,0.3,0.3,0.6,0.3c0.1,0,0.3,0,0.4-0.1
					c0.3-0.2,0.4-0.6,0.2-0.9C49,54.1,49,52.2,49,52.2c0-4.9,1.8-6.8,3.6-8.9c1.1-1.2,2.2-2.4,2.9-4.1c0.1-0.1,1.4-2.9,1.4-10.9
					L57,25.7L57,25.7z"/>
				<path class="st1" d="M41.9,38.8c0.1,0.1,0.3,0.2,0.4,0.2c0.1,0,0.2,0,0.3-0.1l2.4-1.3l2.3,1.3c0.2,0.1,0.5,0.1,0.7-0.1
					c0.2-0.2,0.3-0.5,0.2-0.7l-0.8-2.3l1.9-1.6c0.2-0.2,0.3-0.5,0.2-0.7C49.5,33.1,49.3,33,49,33h-2.4l-1-2.3
					c-0.1-0.2-0.3-0.4-0.6-0.4h0c-0.3,0-0.5,0.2-0.6,0.4l-1,2.3H41c-0.3,0-0.5,0.2-0.6,0.4c-0.1,0.3,0,0.6,0.2,0.7l2,1.6L41.7,38
					C41.6,38.3,41.7,38.6,41.9,38.8z M43.8,34.3c0.2,0,0.5-0.2,0.6-0.4l0.6-1.3l0.6,1.3c0.1,0.2,0.3,0.4,0.6,0.4h1l-0.9,0.8
					c-0.2,0.2-0.3,0.5-0.2,0.7l0.4,1.1l-1.1-0.6c-0.1-0.1-0.2-0.1-0.3-0.1c-0.1,0-0.2,0-0.3,0.1l-1.1,0.6l0.4-1.1
					c0.1-0.3,0-0.6-0.2-0.8l-0.9-0.7L43.8,34.3L43.8,34.3z"/>
			</g>
		</g>
	</g>
</g>
</svg>
