<?xml version="1.0" encoding="utf-8"?>
<!-- Generator: Adobe Illustrator 23.0.3, SVG Export Plug-In . SVG Version: 6.00 Build 0)  -->
<svg version="1.1" id="Layer_1" xmlns="http://www.w3.org/2000/svg" xmlns:xlink="http://www.w3.org/1999/xlink" x="0px" y="0px"
	 viewBox="0 0 49 24" style="enable-background:new 0 0 49 24;" xml:space="preserve">
<style type="text/css">
	.st0{fill:#05b169;}
</style>
<path class="st0" d="M3.6,13.1h44.3c0.6,0,1.1-0.5,1.1-1.1s-0.5-1.1-1.1-1.1H3.6l9-9c0.5-0.5,0.5-1.1,0-1.5c-0.5-0.5-1.1-0.5-1.5,0
	L0.5,11.1C0.2,11.4,0,11.7,0,12l0,0l0,0c0,0.3,0.2,0.6,0.3,0.8l10.8,10.8c0.5,0.5,1.1,0.5,1.5,0c0.5-0.5,0.5-1.1,0-1.5L3.6,13.1z"/>
</svg>
