<?xml version="1.0" encoding="utf-8"?>
<!-- Generator: Adobe Illustrator 23.0.3, SVG Export Plug-In . SVG Version: 6.00 Build 0)  -->
<svg version="1.1" id="Layer_1" xmlns="http://www.w3.org/2000/svg" xmlns:xlink="http://www.w3.org/1999/xlink" x="0px" y="0px"
	 viewBox="0 0 49 24" style="enable-background:new 0 0 49 24;" xml:space="preserve">
<style type="text/css">
	.st0{fill:#05b169;}
</style>
<path class="st0" d="M36.4,22.1c-0.5,0.4-0.5,1,0,1.5c0.4,0.5,1,0.5,1.5,0l10.8-10.8c0.1-0.2,0.3-0.5,0.3-0.8l0,0l0,0
	c0-0.3-0.2-0.6-0.5-0.9L37.9,0.4c-0.4-0.5-1-0.5-1.5,0c-0.5,0.4-0.5,1,0,1.5l9,9H1.1C0.5,10.9,0,11.4,0,12c0,0.6,0.5,1.1,1.1,1.1
	h44.3L36.4,22.1z"/>
</svg>
