<?xml version="1.0" encoding="utf-8"?>
<!-- Generator: Adobe Illustrator 23.0.3, SVG Export Plug-In . SVG Version: 6.00 Build 0)  -->
<svg version="1.1" id="Layer_1" xmlns="http://www.w3.org/2000/svg" xmlns:xlink="http://www.w3.org/1999/xlink" x="0px" y="0px"
	 viewBox="0 0 75 75" style="enable-background:new 0 0 75 75;" xml:space="preserve">
<style type="text/css">
	.st0{opacity:0.15;fill-rule:evenodd;clip-rule:evenodd;fill:#EC008C;}
	.st1{opacity:0.15;fill-rule:evenodd;clip-rule:evenodd;fill:#AA00FF;}
	.st2{fill:#AA00FF;}
	.st3{fill:#EC008C;}
	.st4{opacity:0.15;fill-rule:evenodd;clip-rule:evenodd;fill:#05b169;}
	.st5{fill:#05b169;}
	.st6{opacity:0.15;fill-rule:evenodd;clip-rule:evenodd;fill:#2979FF;}
	.st7{fill:#2979FF;}
</style>
<path id="Rounded_Rectangle_2_1_" class="st0" d="M8.4,1.9C18.1,0.7,27.8,0.1,37.6,0c9.7,0.1,19.4,0.7,29,1.9
	C70.1,3,72,4.5,73.1,8.4c1.2,9.7,1.9,19.4,1.9,29.1c-0.1,9.7-0.7,19.4-1.9,29.1c-1,3.7-2.8,5.4-6.5,6.5c-9.6,1.2-19.3,1.9-29,1.9
	c-9.7-0.1-19.5-0.7-29.2-1.9C4.5,72,3,70.5,1.9,66.6C0.7,56.9,0.1,47.1,0,37.4c0.1-9.7,0.7-19.4,1.9-29C3,4.4,4.4,3,8.4,1.9z"/>
<g>
	<g>
		<g>
			<path class="st3" d="M49.9,35L38.2,23.3c-0.7-0.7-1.8-0.7-2.5,0c-0.7,0.7-0.7,1.8,0,2.5l11.7,11.7c0.7,0.7,1.8,0.7,2.5,0
				C50.6,36.8,50.6,35.6,49.9,35z"/>
		</g>
	</g>
	<g>
		<g>
			<path class="st3" d="M34.8,27.4l-0.1,0.4c-0.6,3.1-2.1,6.1-4.2,8.4l6.4,6.4c2.4-2,5.3-3.6,8.4-4.2l0.4-0.1L34.8,27.4z"/>
		</g>
	</g>
	<g>
		<g>
			<path class="st3" d="M29.4,37.6L25,41.9c-1,1-1,2.7,0,3.7l2.5,2.5c1,1,2.7,1,3.7,0l4.4-4.4L29.4,37.6z M30,44.4
				c-0.3,0.3-0.9,0.3-1.2,0s-0.3-0.9,0-1.2l1.2-1.2c0.3-0.3,0.9-0.3,1.2,0c0.3,0.3,0.3,0.9,0,1.2L30,44.4z"/>
		</g>
	</g>
	<g>
		<g>
			<path class="st3" d="M39.3,48.6l1.2-1.2c1-1,1-2.7,0-3.7l-0.9-0.9c-0.5,0.3-1,0.7-1.4,1.1l1.1,1.1c0.3,0.3,0.3,0.9,0,1.2L38,47.4
				l-1.8-1.7l-2.5,2.5l4,3.9c0.7,0.7,1.8,0.7,2.5,0c0.7-0.7,0.7-1.8,0-2.5L39.3,48.6z"/>
		</g>
	</g>
	<g>
		<g>
			<path class="st3" d="M42,23.4v1.7c0,0.5,0.3,0.8,0.8,0.9c0.5,0.1,1-0.4,1-0.9v-1.8c0-0.5-0.4-0.9-1-0.9C42.3,22.6,42,23,42,23.4z
				"/>
		</g>
	</g>
	<g>
		<g>
			<path class="st3" d="M49.9,29.5h-1.7c-0.5,0-0.8,0.3-0.9,0.8c-0.1,0.5,0.4,1,0.9,1h1.7c0.5,0,0.8-0.3,0.9-0.8
				C50.8,30,50.4,29.5,49.9,29.5z"/>
		</g>
	</g>
	<g>
		<g>
			<path class="st3" d="M48.7,24.5c-0.3-0.3-0.9-0.3-1.2,0l-1.8,1.8c-0.3,0.3-0.3,0.9,0,1.2c0.3,0.3,0.9,0.3,1.2,0l1.8-1.8
				C49.1,25.4,49.1,24.9,48.7,24.5z"/>
		</g>
	</g>
</g>
</svg>
