<?xml version="1.0" encoding="utf-8"?>
<!-- Generator: Adobe Illustrator 23.0.3, SVG Export Plug-In . SVG Version: 6.00 Build 0)  -->
<svg version="1.1" id="Layer_1" xmlns="http://www.w3.org/2000/svg" xmlns:xlink="http://www.w3.org/1999/xlink" x="0px" y="0px"
	 viewBox="0 0 75 75" style="enable-background:new 0 0 75 75;" xml:space="preserve">
<style type="text/css">
	.st0{opacity:0.15;fill-rule:evenodd;clip-rule:evenodd;fill:#03A9F4;}
	.st1{opacity:0.15;fill-rule:evenodd;clip-rule:evenodd;fill:#00A651;}
	.st2{fill:#00A651;}
	.st3{opacity:0.15;fill-rule:evenodd;clip-rule:evenodd;fill:#AA00FF;}
	.st4{fill:#AA00FF;}
	.st5{opacity:0.15;fill-rule:evenodd;clip-rule:evenodd;fill:#EC008C;}
	.st6{fill:#EC008C;}
	.st7{fill:#03A9F4;}
	.st8{opacity:0.15;fill-rule:evenodd;clip-rule:evenodd;fill:#05b169;}
	.st9{fill:#05b169;}
	.st10{opacity:0.15;fill-rule:evenodd;clip-rule:evenodd;fill:#2979FF;}
	.st11{fill:#2979FF;}
</style>
<path id="Rounded_Rectangle_2_1_" class="st0" d="M8.4,1.9C18.1,0.7,27.8,0.1,37.6,0c9.7,0.1,19.4,0.7,29,1.9
	C70.1,3,72,4.5,73.1,8.4c1.2,9.7,1.9,19.4,1.9,29.1c-0.1,9.7-0.7,19.4-1.9,29.1c-1,3.7-2.8,5.4-6.5,6.5c-9.6,1.2-19.3,1.9-29,1.9
	c-9.7-0.1-19.5-0.7-29.2-1.9C4.5,72,3,70.5,1.9,66.6C0.7,56.9,0.1,47.1,0,37.4c0.1-9.7,0.7-19.4,1.9-29C3,4.4,4.4,3,8.4,1.9z"/>
<g>
	<g>
		<g>
			<g>
				<path class="st7" d="M52,22.5H23c-1.1,0-2,0.9-2,2v26c0,1.1,0.9,2,2,2H52c1.1,0,2-0.9,2-2v-26C54,23.4,53.1,22.5,52,22.5z
					 M46.8,25.1h0.7c0.4,0,0.7,0.3,0.7,0.7v0.8c0,0.4-0.3,0.7-0.7,0.7h-0.7c-0.4,0-0.7-0.3-0.7-0.7v-0.8
					C46.1,25.4,46.4,25.1,46.8,25.1z M43.4,25.1h0.7c0.4,0,0.7,0.3,0.7,0.7v0.8c0,0.4-0.3,0.7-0.7,0.7h-0.7c-0.4,0-0.7-0.3-0.7-0.7
					v-0.8C42.6,25.4,43,25.1,43.4,25.1z M51.7,50.1H23.3V29.6h28.3V50.1L51.7,50.1z M50.9,27.4h-0.7c-0.4,0-0.7-0.3-0.7-0.7v-0.8
					c0-0.4,0.3-0.7,0.7-0.7h0.7c0.4,0,0.7,0.3,0.7,0.7v0.8C51.7,27.1,51.3,27.4,50.9,27.4z"/>
				<path class="st7" d="M28.1,40.7l5.3,2.5c0.1,0.1,0.3,0.1,0.4,0.1c0.2,0,0.4-0.1,0.6-0.2c0.3-0.2,0.5-0.5,0.5-0.9v0
					c0-0.4-0.2-0.8-0.6-0.9l-3.3-1.6l3.3-1.6c0.4-0.2,0.6-0.5,0.6-0.9v0c0-0.4-0.2-0.7-0.5-0.9c-0.2-0.1-0.4-0.2-0.6-0.2
					c-0.2,0-0.3,0-0.4,0.1l-5.3,2.5c-0.4,0.2-0.6,0.5-0.6,0.9v0.1C27.5,40.1,27.7,40.5,28.1,40.7z"/>
				<path class="st7" d="M35.4,46c0.1,0,0.2,0.1,0.3,0.1h0c0.5,0,0.8-0.3,1-0.7l3.5-10.8c0.2-0.5-0.1-1-0.6-1.3
					c-0.1-0.1-0.3-0.1-0.4-0.1h0c-0.5,0-0.8,0.3-1,0.7l-3.5,10.8C34.6,45.3,34.8,45.8,35.4,46z"/>
				<path class="st7" d="M40.1,37.2c0,0.4,0.2,0.8,0.6,0.9l3.3,1.5l-3.3,1.5c-0.4,0.2-0.6,0.5-0.6,0.9v0c0,0.3,0.1,0.5,0.2,0.7
					c0.2,0.2,0.5,0.4,0.8,0.4c0.2,0,0.3,0,0.4-0.1l5.3-2.5c0.4-0.2,0.6-0.5,0.6-0.9v-0.1c0-0.4-0.2-0.8-0.6-0.9l-5.3-2.5
					c-0.1-0.1-0.3-0.1-0.4-0.1c-0.2,0-0.4,0.1-0.6,0.2C40.3,36.5,40.1,36.9,40.1,37.2L40.1,37.2L40.1,37.2L40.1,37.2z"/>
			</g>
		</g>
	</g>
</g>
</svg>
